<?xml version="1.0" encoding="UTF-8" standalone="no"?>
<!-- Created with Inkscape (http://www.inkscape.org/) -->
<svg
   xmlns:dc="http://purl.org/dc/elements/1.1/"
   xmlns:cc="http://creativecommons.org/ns#"
   xmlns:rdf="http://www.w3.org/1999/02/22-rdf-syntax-ns#"
   xmlns:svg="http://www.w3.org/2000/svg"
   xmlns="http://www.w3.org/2000/svg"
   xmlns:sodipodi="http://sodipodi.sourceforge.net/DTD/sodipodi-0.dtd"
   xmlns:inkscape="http://www.inkscape.org/namespaces/inkscape"
   width="210mm"
   height="297mm"
   id="svg2"
   sodipodi:version="0.32"
   inkscape:version="0.46"
   sodipodi:docbase="/home/user-new"
   sodipodi:docname="theoralogo3.svg"
   inkscape:output_extension="org.inkscape.output.svg.inkscape"
   sodipodi:modified="true">
  <defs
     id="defs4">
    <inkscape:perspective
       sodipodi:type="inkscape:persp3d"
       inkscape:vp_x="0 : 526.18109 : 1"
       inkscape:vp_y="0 : 1000 : 0"
       inkscape:vp_z="744.09448 : 526.18109 : 1"
       inkscape:persp3d-origin="372.04724 : 350.78739 : 1"
       id="perspective36" />
  </defs>
  <sodipodi:namedview
     id="base"
     pagecolor="#ffffff"
     bordercolor="#666666"
     borderopacity="1.0"
     inkscape:pageopacity="0.0"
     inkscape:pageshadow="2"
     inkscape:zoom="1.3873551"
     inkscape:cx="476.52589"
     inkscape:cy="738.16589"
     inkscape:document-units="px"
     inkscape:current-layer="layer1"
     inkscape:window-width="1280"
     inkscape:window-height="949"
     inkscape:window-x="0"
     inkscape:window-y="25"
     showgrid="false" />
  <metadata
     id="metadata7">
    <rdf:RDF>
      <cc:Work
         rdf:about="">
        <dc:format>image/svg+xml</dc:format>
        <dc:type
           rdf:resource="http://purl.org/dc/dcmitype/StillImage" />
      </cc:Work>
    </rdf:RDF>
  </metadata>
  <g
     inkscape:label="Ebene 1"
     inkscape:groupmode="layer"
     id="layer1">
    <rect
       style="fill:#000000;fill-opacity:1;fill-rule:nonzero;stroke:#000000;stroke-width:0;stroke-linecap:butt;stroke-linejoin:miter;stroke-miterlimit:4;stroke-dasharray:none;stroke-dashoffset:0;stroke-opacity:1"
       id="rect7075"
       width="342.48468"
       height="262.06958"
       x="243.41455"
       y="-198.66898"
       ry="0"
       transform="matrix(0.763574,0.6457203,-0.8497468,0.527191,0,0)" />
    <g
       id="g2427">
      <rect
         transform="matrix(0.763574,0.6457203,-0.8497468,0.527191,0,0)"
         rx="0"
         ry="0"
         y="-193.70866"
         x="273.54053"
         height="251.32224"
         width="282.23276"
         id="rect2160"
         style="fill:#fbfeb0;fill-opacity:1;fill-rule:nonzero;stroke:#000000;stroke-width:0;stroke-linecap:butt;stroke-linejoin:miter;stroke-miterlimit:4;stroke-dasharray:none;stroke-dashoffset:0;stroke-opacity:1" />
      <g
         transform="matrix(0.4199196,0.3551072,-0.4873091,0.3023312,427.43683,-21.982771)"
         id="g8060">
        <rect
           style="opacity:1;fill:#e6e6e6;fill-opacity:1;fill-rule:nonzero;stroke:#000000;stroke-width:0;stroke-linecap:butt;stroke-linejoin:miter;stroke-miterlimit:4;stroke-dasharray:none;stroke-dashoffset:0;stroke-opacity:1"
           id="rect7077"
           width="31.715025"
           height="38.922985"
           x="59.105274"
           y="206.56358"
           ry="10.091145" />
        <rect
           style="opacity:1;fill:#e6e6e6;fill-opacity:1;fill-rule:nonzero;stroke:#000000;stroke-width:0;stroke-linecap:butt;stroke-linejoin:miter;stroke-miterlimit:4;stroke-dasharray:none;stroke-dashoffset:0;stroke-opacity:1"
           id="rect8048"
           width="31.715025"
           height="38.922985"
           x="59.105278"
           y="272.15604"
           ry="10.091145" />
        <rect
           style="opacity:1;fill:#e6e6e6;fill-opacity:1;fill-rule:nonzero;stroke:#000000;stroke-width:0;stroke-linecap:butt;stroke-linejoin:miter;stroke-miterlimit:4;stroke-dasharray:none;stroke-dashoffset:0;stroke-opacity:1"
           id="rect8050"
           width="31.715025"
           height="38.922985"
           x="59.10527"
           y="336.37811"
           ry="10.091145" />
        <rect
           style="opacity:1;fill:#e6e6e6;fill-opacity:1;fill-rule:nonzero;stroke:#000000;stroke-width:0;stroke-linecap:butt;stroke-linejoin:miter;stroke-miterlimit:4;stroke-dasharray:none;stroke-dashoffset:0;stroke-opacity:1"
           id="rect8052"
           width="31.715025"
           height="38.922985"
           x="59.640587"
           y="401.84796"
           ry="10.091145" />
        <rect
           style="opacity:1;fill:#e6e6e6;fill-opacity:1;fill-rule:nonzero;stroke:#000000;stroke-width:0;stroke-linecap:butt;stroke-linejoin:miter;stroke-miterlimit:4;stroke-dasharray:none;stroke-dashoffset:0;stroke-opacity:1"
           id="rect8054"
           width="31.715025"
           height="38.922985"
           x="59.640587"
           y="467.84796"
           ry="10.091145" />
        <rect
           style="opacity:1;fill:#e6e6e6;fill-opacity:1;fill-rule:nonzero;stroke:#000000;stroke-width:0;stroke-linecap:butt;stroke-linejoin:miter;stroke-miterlimit:4;stroke-dasharray:none;stroke-dashoffset:0;stroke-opacity:1"
           id="rect8056"
           width="31.715025"
           height="38.922985"
           x="59.640587"
           y="591.84796"
           ry="10.091145" />
        <rect
           style="opacity:1;fill:#e6e6e6;fill-opacity:1;fill-rule:nonzero;stroke:#000000;stroke-width:0;stroke-linecap:butt;stroke-linejoin:miter;stroke-miterlimit:4;stroke-dasharray:none;stroke-dashoffset:0;stroke-opacity:1"
           id="rect8058"
           width="31.715025"
           height="38.922985"
           x="59.640587"
           y="529.84796"
           ry="10.091145" />
      </g>
      <g
         transform="matrix(0.4199196,0.3551072,-0.4873091,0.3023312,665.63684,179.76893)"
         id="g8069">
        <rect
           style="opacity:1;fill:#e6e6e6;fill-opacity:1;fill-rule:nonzero;stroke:#000000;stroke-width:0;stroke-linecap:butt;stroke-linejoin:miter;stroke-miterlimit:4;stroke-dasharray:none;stroke-dashoffset:0;stroke-opacity:1"
           id="rect8071"
           width="31.715025"
           height="38.922985"
           x="59.105274"
           y="206.56358"
           ry="10.091145" />
        <rect
           style="opacity:1;fill:#e6e6e6;fill-opacity:1;fill-rule:nonzero;stroke:#000000;stroke-width:0;stroke-linecap:butt;stroke-linejoin:miter;stroke-miterlimit:4;stroke-dasharray:none;stroke-dashoffset:0;stroke-opacity:1"
           id="rect8073"
           width="31.715025"
           height="38.922985"
           x="59.105278"
           y="272.15604"
           ry="10.091145" />
        <rect
           style="opacity:1;fill:#e6e6e6;fill-opacity:1;fill-rule:nonzero;stroke:#000000;stroke-width:0;stroke-linecap:butt;stroke-linejoin:miter;stroke-miterlimit:4;stroke-dasharray:none;stroke-dashoffset:0;stroke-opacity:1"
           id="rect8075"
           width="31.715025"
           height="38.922985"
           x="59.10527"
           y="336.37811"
           ry="10.091145" />
        <rect
           style="opacity:1;fill:#e6e6e6;fill-opacity:1;fill-rule:nonzero;stroke:#000000;stroke-width:0;stroke-linecap:butt;stroke-linejoin:miter;stroke-miterlimit:4;stroke-dasharray:none;stroke-dashoffset:0;stroke-opacity:1"
           id="rect8077"
           width="31.715025"
           height="38.922985"
           x="59.640587"
           y="401.84796"
           ry="10.091145" />
        <rect
           style="opacity:1;fill:#e6e6e6;fill-opacity:1;fill-rule:nonzero;stroke:#000000;stroke-width:0;stroke-linecap:butt;stroke-linejoin:miter;stroke-miterlimit:4;stroke-dasharray:none;stroke-dashoffset:0;stroke-opacity:1"
           id="rect8079"
           width="31.715025"
           height="38.922985"
           x="59.640587"
           y="467.84796"
           ry="10.091145" />
        <rect
           style="opacity:1;fill:#e6e6e6;fill-opacity:1;fill-rule:nonzero;stroke:#000000;stroke-width:0;stroke-linecap:butt;stroke-linejoin:miter;stroke-miterlimit:4;stroke-dasharray:none;stroke-dashoffset:0;stroke-opacity:1"
           id="rect8081"
           width="31.715025"
           height="38.922985"
           x="59.640587"
           y="591.84796"
           ry="10.091145" />
        <rect
           style="opacity:1;fill:#e6e6e6;fill-opacity:1;fill-rule:nonzero;stroke:#000000;stroke-width:0;stroke-linecap:butt;stroke-linejoin:miter;stroke-miterlimit:4;stroke-dasharray:none;stroke-dashoffset:0;stroke-opacity:1"
           id="rect8083"
           width="31.715025"
           height="38.922985"
           x="59.640587"
           y="529.84796"
           ry="10.091145" />
      </g>
    </g>
    <g
       id="g2242"
       transform="matrix(0.8614385,0,0,0.8684351,538.33114,-270.25162)">
      <path
         d="M -319.44854,491.85632 C -319.44854,491.85632 -253.73584,446.62333 -217.78729,448.57583 C -181.82242,450.52836 -146.80899,467.73671 -146.80899,467.73671 L -137.47388,486.37072 C -137.47388,486.37072 -112.16529,497.33418 -106.54627,504.49335 C -101.04144,511.48982 -101.18282,510.93971 -86.590267,550.02074 C -86.590267,550.02074 -230.09364,563.86646 -244.10443,549.59461 C -258.12339,535.32275 -319.44854,491.85632 -319.44854,491.85632 z "
         stroke-miterlimit="4"
         id="path12676"
         style="fill:#66cef5;fill-rule:evenodd;stroke:#3a9ddd;stroke-width:3.84042716;stroke-linecap:butt;stroke-linejoin:miter;stroke-miterlimit:4" />
      <path
         d="M -145.82491,553.39115 C -132.99664,547.8358 -92.089641,543.93855 -74.237707,535.33823 C -60.634664,528.78341 -0.79106934,506.17467 16.914081,517.44031 C 26.569956,523.58449 -6.5242439,577.02261 -18.944781,590.32599 C -31.240248,603.5131 -21.440291,643.96555 -23.528047,649.58289 C -27.858528,661.18168 -56.508088,665.5593 -63.429224,663.20392 C -69.915383,661.00348 -109.55013,649.55189 -127.12481,642.75686 C -141.4292,637.21704 -150.93014,628.81041 -191.74742,633.73818 C -232.56195,638.65042 -145.82491,553.39115 -145.82491,553.39115 z "
         stroke-miterlimit="4"
         id="path12678"
         style="fill:#66cef5;fill-rule:evenodd;stroke:#33bef2;stroke-width:3.84042716;stroke-linecap:butt;stroke-linejoin:miter;stroke-miterlimit:4" />
      <path
         d="M -268.21151,644.12828 C -268.21151,644.12828 -233.25787,657.84227 -210.39042,657.55561 L -186.96025,653.70483 C -186.96025,653.70483 -167.85238,642.0518 -187.36801,629.91839"
         stroke-miterlimit="4"
         id="path12680"
         style="fill:#66cef5;fill-rule:evenodd;stroke:#3a9ddd;stroke-width:3.84042716;stroke-linecap:butt;stroke-linejoin:miter;stroke-miterlimit:4" />
      <path
         d="M -223.7787,637.74388 C -249.40539,647.11902 -329.03916,654.69657 -357.28097,633.57545 C -373.23271,621.64349 -393.80855,572.13361 -393.80855,572.13361 C -393.80855,572.13361 -374.23854,537.5929 -372.19156,536.82585 C -372.19156,536.82585 -382.40743,513.65152 -330.94205,497.45038 C -298.04357,487.09903 -301.29755,485.47195 -257.61776,489.46991 C -230.37635,491.96478 -186.29966,513.9382 -176.35022,523.78593 C -159.24854,540.71537 -116.80837,553.21292 -100.67717,554.84777 C -84.535135,556.47485 -74.194198,554.90976 -74.194198,554.90976 C -74.194198,554.90976 -79.546789,588.97007 -94.984775,607.89076 C -110.43092,626.80369 -122.15824,628.6942 -122.15824,628.6942 C -122.15824,628.6942 -147.33366,629.26757 -170.60889,629.59296 C -205.21724,630.07334 -223.7787,637.74388 -223.7787,637.74388 z "
         stroke-miterlimit="4"
         id="path12682"
         style="fill:#f9ac15;fill-rule:evenodd;stroke:#f8a20d;stroke-width:3.84042716;stroke-linecap:butt;stroke-linejoin:miter;stroke-miterlimit:4" />
      <path
         d="M -400.28656,566.42332 C -400.28656,566.42332 -374.63,499.44938 -312.78564,495.2422 C -257.64766,491.49215 -225.05908,533.60267 -225.13522,564.04468 C -225.22491,601.75433 -254.61662,637.51145 -293.46031,641.49393 C -340.52452,646.32096 -363.11472,633.4205 -364.54188,628.7252 C -365.96091,624.02215 -409.79565,583.28302 -400.28656,566.42332 z "
         stroke-miterlimit="4"
         id="path12684"
         style="fill:#fccc36;fill-rule:evenodd;stroke:#f8a20d;stroke-width:4.16336155;stroke-linecap:butt;stroke-linejoin:miter;stroke-miterlimit:4" />
      <path
         d="M -353.24408,630.60021 C -357.966,634.13332 -353.98621,632.6302 -373.24359,635.16381 C -386.83848,636.95361 -400.70792,634.78414 -408.36576,625.34704 C -415.10203,617.04117 -406.00345,615.70075 -393.25669,614.92595 C -387.56972,614.5773 -381.58374,615.01118 -383.07618,612.40786 C -389.04585,602.01001 -400.07182,590.04705 -413.17737,588.60593 C -441.06036,585.5377 -433.82659,566.94244 -433.82659,566.94244 C -432.18739,560.31013 -412.73156,558.98521 -395.65165,562.15415 L -351.18079,611.20689"
         stroke-miterlimit="4"
         id="path12686"
         style="fill:#66cef5;fill-rule:evenodd;stroke:#33bef2;stroke-width:5.0590682;stroke-linecap:butt;stroke-linejoin:miter;stroke-miterlimit:4" />
      <path
         d="M -285.27238,522.83293 C -284.9924,543.11725 -301.81676,559.79101 -322.88462,560.06994 C -343.9389,560.33338 -361.21453,544.0935 -361.48092,523.79368 C -361.76636,503.49385 -344.94199,486.82784 -323.88772,486.55666 C -302.82802,486.29323 -285.54693,502.5331 -285.27238,522.83293 z "
         stroke-miterlimit="4"
         id="path12688"
         style="fill:#ffffff;fill-rule:nonzero;stroke:#d8691b;stroke-width:3.95506287;stroke-linecap:butt;stroke-linejoin:miter;stroke-miterlimit:4" />
      <path
         d="M -314.51728,522.97238 C -314.46565,527.0401 -317.85009,530.37949 -322.05008,530.44148 C -326.26091,530.48022 -329.72692,527.24155 -329.78402,523.17385 C -329.84108,519.11387 -326.46479,515.77446 -322.2458,515.7125 C -318.04039,515.66601 -314.59069,518.92018 -314.51728,522.97238 z "
         id="path12690"
         style="fill:#201b1c;fill-rule:nonzero;stroke:none" />
      <path
         d="M -230.60742,571.43629 C -230.60742,571.43629 -176.69272,568.79423 -173.35448,566.15988 C -170.0217,563.51781 -165.90871,568.01942 -165.19375,571.2581 C -164.48152,574.49677 -204.38812,609.39387 -213.83196,608.86701 C -223.2758,608.32464 -261.61929,610.92799 -260.34164,605.72132"
         stroke-miterlimit="4"
         id="path12692"
         style="fill:#66cef5;fill-rule:evenodd;stroke:#33bef2;stroke-width:3.84042716;stroke-linecap:butt;stroke-linejoin:miter;stroke-miterlimit:4" />
    </g>
  </g>
</svg>
